<?xml version="1.0" standalone="no"?>
<!DOCTYPE svg PUBLIC "-//W3C//DTD SVG 1.1//EN" "http://www.w3.org/Graphics/SVG/1.1/DTD/svg11.dtd">
<svg version="1.1" width="1200" height="470" onload="init(evt)" viewBox="0 0 1200 470" xmlns="http://www.w3.org/2000/svg" xmlns:xlink="http://www.w3.org/1999/xlink">
<!-- Flame graph stack visualization. See https://github.com/brendangregg/FlameGraph for latest version, and http://www.brendangregg.com/flamegraphs.html for examples. -->
<!-- NOTES:  -->
<defs>
	<linearGradient id="background" y1="0" y2="1" x1="0" x2="0" >
		<stop stop-color="#eeeeee" offset="5%" />
		<stop stop-color="#eeeeb0" offset="95%" />
	</linearGradient>
</defs>
<style type="text/css">
	text { font-family:Verdana; font-size:12px; fill:rgb(0,0,0); }
	#search, #ignorecase { opacity:0.1; cursor:pointer; }
	#search:hover, #search.show, #ignorecase:hover, #ignorecase.show { opacity:1; }
	#subtitle { text-anchor:middle; font-color:rgb(160,160,160); }
	#title { text-anchor:middle; font-size:17px}
	#unzoom { cursor:pointer; }
	#frames > *:hover { stroke:black; stroke-width:0.5; cursor:pointer; }
	.hide { display:none; }
	.parent { opacity:0.5; }
</style>
<script type="text/ecmascript">
<![CDATA[
	"use strict";
	var details, searchbtn, unzoombtn, matchedtxt, svg, searching, currentSearchTerm, ignorecase, ignorecaseBtn;
	function init(evt) {
		details = document.getElementById("details").firstChild;
		searchbtn = document.getElementById("search");
		ignorecaseBtn = document.getElementById("ignorecase");
		unzoombtn = document.getElementById("unzoom");
		matchedtxt = document.getElementById("matched");
		svg = document.getElementsByTagName("svg")[0];
		searching = 0;
		currentSearchTerm = null;

		// use GET parameters to restore a flamegraphs state.
		var params = get_params();
		if (params.x && params.y)
			zoom(find_group(document.querySelector('[x="' + params.x + '"][y="' + params.y + '"]')));
                if (params.s) search(params.s);
	}

	// event listeners
	window.addEventListener("click", function(e) {
		var target = find_group(e.target);
		if (target) {
			if (target.nodeName == "a") {
				if (e.ctrlKey === false) return;
				e.preventDefault();
			}
			if (target.classList.contains("parent")) unzoom(true);
			zoom(target);
			if (!document.querySelector('.parent')) {
				// we have basically done a clearzoom so clear the url
				var params = get_params();
				if (params.x) delete params.x;
				if (params.y) delete params.y;
				history.replaceState(null, null, parse_params(params));
				unzoombtn.classList.add("hide");
				return;
			}

			// set parameters for zoom state
			var el = target.querySelector("rect");
			if (el && el.attributes && el.attributes.y && el.attributes._orig_x) {
				var params = get_params()
				params.x = el.attributes._orig_x.value;
				params.y = el.attributes.y.value;
				history.replaceState(null, null, parse_params(params));
			}
		}
		else if (e.target.id == "unzoom") clearzoom();
		else if (e.target.id == "search") search_prompt();
		else if (e.target.id == "ignorecase") toggle_ignorecase();
	}, false)

	// mouse-over for info
	// show
	window.addEventListener("mouseover", function(e) {
		var target = find_group(e.target);
		if (target) details.nodeValue = "Function: " + g_to_text(target);
	}, false)

	// clear
	window.addEventListener("mouseout", function(e) {
		var target = find_group(e.target);
		if (target) details.nodeValue = ' ';
	}, false)

	// ctrl-F for search
	// ctrl-I to toggle case-sensitive search
	window.addEventListener("keydown",function (e) {
		if (e.keyCode === 114 || (e.ctrlKey && e.keyCode === 70)) {
			e.preventDefault();
			search_prompt();
		}
		else if (e.ctrlKey && e.keyCode === 73) {
			e.preventDefault();
			toggle_ignorecase();
		}
	}, false)

	// functions
	function get_params() {
		var params = {};
		var paramsarr = window.location.search.substr(1).split('&');
		for (var i = 0; i < paramsarr.length; ++i) {
			var tmp = paramsarr[i].split("=");
			if (!tmp[0] || !tmp[1]) continue;
			params[tmp[0]]  = decodeURIComponent(tmp[1]);
		}
		return params;
	}
	function parse_params(params) {
		var uri = "?";
		for (var key in params) {
			uri += key + '=' + encodeURIComponent(params[key]) + '&';
		}
		if (uri.slice(-1) == "&")
			uri = uri.substring(0, uri.length - 1);
		if (uri == '?')
			uri = window.location.href.split('?')[0];
		return uri;
	}
	function find_child(node, selector) {
		var children = node.querySelectorAll(selector);
		if (children.length) return children[0];
	}
	function find_group(node) {
		var parent = node.parentElement;
		if (!parent) return;
		if (parent.id == "frames") return node;
		return find_group(parent);
	}
	function orig_save(e, attr, val) {
		if (e.attributes["_orig_" + attr] != undefined) return;
		if (e.attributes[attr] == undefined) return;
		if (val == undefined) val = e.attributes[attr].value;
		e.setAttribute("_orig_" + attr, val);
	}
	function orig_load(e, attr) {
		if (e.attributes["_orig_"+attr] == undefined) return;
		e.attributes[attr].value = e.attributes["_orig_" + attr].value;
		e.removeAttribute("_orig_"+attr);
	}
	function g_to_text(e) {
		var text = find_child(e, "title").firstChild.nodeValue;
		return (text)
	}
	function g_to_func(e) {
		var func = g_to_text(e);
		// if there's any manipulation we want to do to the function
		// name before it's searched, do it here before returning.
		return (func);
	}
	function update_text(e) {
		var r = find_child(e, "rect");
		var t = find_child(e, "text");
		var w = parseFloat(r.attributes.width.value) -3;
		var txt = find_child(e, "title").textContent.replace(/\([^(]*\)$/,"");
		t.attributes.x.value = parseFloat(r.attributes.x.value) + 3;

		// Smaller than this size won't fit anything
		if (w < 2 * 12 * 0.59) {
			t.textContent = "";
			return;
		}

		t.textContent = txt;
		var sl = t.getSubStringLength(0, txt.length);
		// check if only whitespace or if we can fit the entire string into width w
		if (/^ *$/.test(txt) || sl < w)
			return;

		// this isn't perfect, but gives a good starting point
		// and avoids calling getSubStringLength too often
		var start = Math.floor((w/sl) * txt.length);
		for (var x = start; x > 0; x = x-2) {
			if (t.getSubStringLength(0, x + 2) <= w) {
				t.textContent = txt.substring(0, x) + "..";
				return;
			}
		}
		t.textContent = "";
	}

	// zoom
	function zoom_reset(e) {
		if (e.attributes != undefined) {
			orig_load(e, "x");
			orig_load(e, "width");
		}
		if (e.childNodes == undefined) return;
		for (var i = 0, c = e.childNodes; i < c.length; i++) {
			zoom_reset(c[i]);
		}
	}
	function zoom_child(e, x, ratio) {
		if (e.attributes != undefined) {
			if (e.attributes.x != undefined) {
				orig_save(e, "x");
				e.attributes.x.value = (parseFloat(e.attributes.x.value) - x - 10) * ratio + 10;
				if (e.tagName == "text")
					e.attributes.x.value = find_child(e.parentNode, "rect[x]").attributes.x.value + 3;
			}
			if (e.attributes.width != undefined) {
				orig_save(e, "width");
				e.attributes.width.value = parseFloat(e.attributes.width.value) * ratio;
			}
		}

		if (e.childNodes == undefined) return;
		for (var i = 0, c = e.childNodes; i < c.length; i++) {
			zoom_child(c[i], x - 10, ratio);
		}
	}
	function zoom_parent(e) {
		if (e.attributes) {
			if (e.attributes.x != undefined) {
				orig_save(e, "x");
				e.attributes.x.value = 10;
			}
			if (e.attributes.width != undefined) {
				orig_save(e, "width");
				e.attributes.width.value = parseInt(svg.width.baseVal.value) - (10 * 2);
			}
		}
		if (e.childNodes == undefined) return;
		for (var i = 0, c = e.childNodes; i < c.length; i++) {
			zoom_parent(c[i]);
		}
	}
	function zoom(node) {
		var attr = find_child(node, "rect").attributes;
		var width = parseFloat(attr.width.value);
		var xmin = parseFloat(attr.x.value);
		var xmax = parseFloat(xmin + width);
		var ymin = parseFloat(attr.y.value);
		var ratio = (svg.width.baseVal.value - 2 * 10) / width;

		// XXX: Workaround for JavaScript float issues (fix me)
		var fudge = 0.0001;

		unzoombtn.classList.remove("hide");

		var el = document.getElementById("frames").children;
		for (var i = 0; i < el.length; i++) {
			var e = el[i];
			var a = find_child(e, "rect").attributes;
			var ex = parseFloat(a.x.value);
			var ew = parseFloat(a.width.value);
			var upstack;
			// Is it an ancestor
			if (0 == 0) {
				upstack = parseFloat(a.y.value) > ymin;
			} else {
				upstack = parseFloat(a.y.value) < ymin;
			}
			if (upstack) {
				// Direct ancestor
				if (ex <= xmin && (ex+ew+fudge) >= xmax) {
					e.classList.add("parent");
					zoom_parent(e);
					update_text(e);
				}
				// not in current path
				else
					e.classList.add("hide");
			}
			// Children maybe
			else {
				// no common path
				if (ex < xmin || ex + fudge >= xmax) {
					e.classList.add("hide");
				}
				else {
					zoom_child(e, xmin, ratio);
					update_text(e);
				}
			}
		}
		search();
	}
	function unzoom(dont_update_text) {
		unzoombtn.classList.add("hide");
		var el = document.getElementById("frames").children;
		for(var i = 0; i < el.length; i++) {
			el[i].classList.remove("parent");
			el[i].classList.remove("hide");
			zoom_reset(el[i]);
			if(!dont_update_text) update_text(el[i]);
		}
		search();
	}
	function clearzoom() {
		unzoom();

		// remove zoom state
		var params = get_params();
		if (params.x) delete params.x;
		if (params.y) delete params.y;
		history.replaceState(null, null, parse_params(params));
	}

	// search
	function toggle_ignorecase() {
		ignorecase = !ignorecase;
		if (ignorecase) {
			ignorecaseBtn.classList.add("show");
		} else {
			ignorecaseBtn.classList.remove("show");
		}
		reset_search();
		search();
	}
	function reset_search() {
		var el = document.querySelectorAll("#frames rect");
		for (var i = 0; i < el.length; i++) {
			orig_load(el[i], "fill")
		}
		var params = get_params();
		delete params.s;
		history.replaceState(null, null, parse_params(params));
	}
	function search_prompt() {
		if (!searching) {
			var term = prompt("Enter a search term (regexp " +
			    "allowed, eg: ^ext4_)"
			    + (ignorecase ? ", ignoring case" : "")
			    + "\nPress Ctrl-i to toggle case sensitivity", "");
			if (term != null) search(term);
		} else {
			reset_search();
			searching = 0;
			currentSearchTerm = null;
			searchbtn.classList.remove("show");
			searchbtn.firstChild.nodeValue = "Search"
			matchedtxt.classList.add("hide");
			matchedtxt.firstChild.nodeValue = ""
		}
	}
	function search(term) {
		if (term) currentSearchTerm = term;
		if (currentSearchTerm === null) return;

		var re = new RegExp(currentSearchTerm, ignorecase ? 'i' : '');
		var el = document.getElementById("frames").children;
		var matches = new Object();
		var maxwidth = 0;
		for (var i = 0; i < el.length; i++) {
			var e = el[i];
			var func = g_to_func(e);
			var rect = find_child(e, "rect");
			if (func == null || rect == null)
				continue;

			// Save max width. Only works as we have a root frame
			var w = parseFloat(rect.attributes.width.value);
			if (w > maxwidth)
				maxwidth = w;

			if (func.match(re)) {
				// highlight
				var x = parseFloat(rect.attributes.x.value);
				orig_save(rect, "fill");
				rect.attributes.fill.value = "rgb(230,0,230)";

				// remember matches
				if (matches[x] == undefined) {
					matches[x] = w;
				} else {
					if (w > matches[x]) {
						// overwrite with parent
						matches[x] = w;
					}
				}
				searching = 1;
			}
		}
		if (!searching)
			return;
		var params = get_params();
		params.s = currentSearchTerm;
		history.replaceState(null, null, parse_params(params));

		searchbtn.classList.add("show");
		searchbtn.firstChild.nodeValue = "Reset Search";

		// calculate percent matched, excluding vertical overlap
		var count = 0;
		var lastx = -1;
		var lastw = 0;
		var keys = Array();
		for (k in matches) {
			if (matches.hasOwnProperty(k))
				keys.push(k);
		}
		// sort the matched frames by their x location
		// ascending, then width descending
		keys.sort(function(a, b){
			return a - b;
		});
		// Step through frames saving only the biggest bottom-up frames
		// thanks to the sort order. This relies on the tree property
		// where children are always smaller than their parents.
		var fudge = 0.0001;	// JavaScript floating point
		for (var k in keys) {
			var x = parseFloat(keys[k]);
			var w = matches[keys[k]];
			if (x >= lastx + lastw - fudge) {
				count += w;
				lastx = x;
				lastw = w;
			}
		}
		// display matched percent
		matchedtxt.classList.remove("hide");
		var pct = 100 * count / maxwidth;
		if (pct != 100) pct = pct.toFixed(1)
		matchedtxt.firstChild.nodeValue = "Matched: " + pct + "%";
	}
]]>
</script>
<rect x="0.0" y="0" width="1200.0" height="470.0" fill="url(#background)"  />
<text id="title" x="600.00" y="24" >uxsched_runner (profiling build)</text>
<text id="details" x="10.00" y="453" > </text>
<text id="unzoom" x="10.00" y="24" class="hide">Reset Zoom</text>
<text id="search" x="1090.00" y="24" >Search</text>
<text id="ignorecase" x="1174.00" y="24" >ic</text>
<text id="matched" x="1090.00" y="453" > </text>
<g id="frames">
<g >
<title>irqentry_exit (188,597,867 samples, 0.08%)</title><rect x="1181.6" y="373" width="0.9" height="15.0" fill="rgb(219,66,15)" rx="2" ry="2" />
<text  x="1184.57" y="383.5" ></text>
</g>
<g >
<title>tick_nohz_handler (461,228,429 samples, 0.20%)</title><rect x="1184.5" y="309" width="2.3" height="15.0" fill="rgb(248,200,48)" rx="2" ry="2" />
<text  x="1187.47" y="319.5" ></text>
</g>
<g >
<title>schedule (43,104,432 samples, 0.02%)</title><rect x="1188.1" y="357" width="0.3" height="15.0" fill="rgb(254,229,54)" rx="2" ry="2" />
<text  x="1191.14" y="367.5" ></text>
</g>
<g >
<title>update_cfs_group (43,671,501 samples, 0.02%)</title><rect x="1185.1" y="245" width="0.2" height="15.0" fill="rgb(242,174,41)" rx="2" ry="2" />
<text  x="1188.06" y="255.5" ></text>
</g>
<g >
<title>[libc.so.6] (587,617,234 samples, 0.25%)</title><rect x="1174.5" y="229" width="3.0" height="15.0" fill="rgb(223,84,20)" rx="2" ry="2" />
<text  x="1177.52" y="239.5" ></text>
</g>
<g >
<title>__hrtimer_run_queues (755,328,804 samples, 0.32%)</title><rect x="1183.1" y="325" width="3.8" height="15.0" fill="rgb(237,150,35)" rx="2" ry="2" />
<text  x="1186.13" y="335.5" ></text>
</g>
<g >
<title>uxsched_runner (233,330,730,607 samples, 100.00%)</title><rect x="10.0" y="405" width="1180.0" height="15.0" fill="rgb(213,40,9)" rx="2" ry="2" />
<text  x="13.00" y="415.5" >uxsched_runner</text>
</g>
<g >
<title>pick_next_task_fair (86,811,223 samples, 0.04%)</title><rect x="1181.9" y="325" width="0.5" height="15.0" fill="rgb(242,170,40)" rx="2" ry="2" />
<text  x="1184.94" y="335.5" ></text>
</g>
<g >
<title>dequeue_task_fair (73,761,425 samples, 0.03%)</title><rect x="1175.5" y="69" width="0.4" height="15.0" fill="rgb(230,119,28)" rx="2" ry="2" />
<text  x="1178.49" y="79.5" ></text>
</g>
<g >
<title>update_load_avg (30,199,902 samples, 0.01%)</title><rect x="1175.7" y="37" width="0.2" height="15.0" fill="rgb(240,165,39)" rx="2" ry="2" />
<text  x="1178.71" y="47.5" ></text>
</g>
<g >
<title>malloc (29,268,069 samples, 0.01%)</title><rect x="1178.1" y="277" width="0.2" height="15.0" fill="rgb(230,119,28)" rx="2" ry="2" />
<text  x="1181.14" y="287.5" ></text>
</g>
<g >
<title>ttwu_do_activate (131,441,471 samples, 0.06%)</title><rect x="1183.7" y="277" width="0.7" height="15.0" fill="rgb(215,48,11)" rx="2" ry="2" />
<text  x="1186.73" y="287.5" ></text>
</g>
<g >
<title>handle_softirqs (44,019,938 samples, 0.02%)</title><rect x="1180.5" y="341" width="0.3" height="15.0" fill="rgb(238,156,37)" rx="2" ry="2" />
<text  x="1183.55" y="351.5" ></text>
</g>
<g >
<title>idma64_irq (45,257,311 samples, 0.02%)</title><rect x="1180.2" y="293" width="0.2" height="15.0" fill="rgb(215,47,11)" rx="2" ry="2" />
<text  x="1183.16" y="303.5" ></text>
</g>
<g >
<title>dw_reg_read (102,457,856 samples, 0.04%)</title><rect x="1179.6" y="245" width="0.6" height="15.0" fill="rgb(205,3,0)" rx="2" ry="2" />
<text  x="1182.65" y="255.5" ></text>
</g>
<g >
<title>switch_fpu_return (40,524,858 samples, 0.02%)</title><rect x="1176.7" y="165" width="0.2" height="15.0" fill="rgb(206,5,1)" rx="2" ry="2" />
<text  x="1179.67" y="175.5" ></text>
</g>
<g >
<title>ah_loader&lt;std::function&lt;void  (163,600,733 samples, 0.07%)</title><rect x="1126.7" y="293" width="0.9" height="15.0" fill="rgb(232,124,29)" rx="2" ry="2" />
<text  x="1129.73" y="303.5" ></text>
</g>
<g >
<title>i2c_dw_process_transfer (103,570,044 samples, 0.04%)</title><rect x="1178.4" y="277" width="0.6" height="15.0" fill="rgb(248,200,47)" rx="2" ry="2" />
<text  x="1181.43" y="287.5" ></text>
</g>
<g >
<title>schedule (293,889,551 samples, 0.13%)</title><rect x="1175.1" y="101" width="1.5" height="15.0" fill="rgb(254,229,54)" rx="2" ry="2" />
<text  x="1178.11" y="111.5" ></text>
</g>
<g >
<title>i2c_dw_read_clear_intrbits (135,960,953 samples, 0.06%)</title><rect x="1179.0" y="277" width="0.6" height="15.0" fill="rgb(210,26,6)" rx="2" ry="2" />
<text  x="1181.96" y="287.5" ></text>
</g>
<g >
<title>native_apic_msr_eoi (44,247,634 samples, 0.02%)</title><rect x="1187.6" y="341" width="0.2" height="15.0" fill="rgb(243,178,42)" rx="2" ry="2" />
<text  x="1190.62" y="351.5" ></text>
</g>
<g >
<title>handle_irq_event (387,246,164 samples, 0.17%)</title><rect x="1178.4" y="325" width="2.0" height="15.0" fill="rgb(209,19,4)" rx="2" ry="2" />
<text  x="1181.43" y="335.5" ></text>
</g>
<g >
<title>std::atomic&lt;bool&gt;::load (29,031,138 samples, 0.01%)</title><rect x="1127.4" y="245" width="0.2" height="15.0" fill="rgb(221,75,18)" rx="2" ry="2" />
<text  x="1130.41" y="255.5" ></text>
</g>
<g >
<title>sync_regs (30,620,207 samples, 0.01%)</title><rect x="1182.5" y="373" width="0.2" height="15.0" fill="rgb(228,106,25)" rx="2" ry="2" />
<text  x="1185.53" y="383.5" ></text>
</g>
<g >
<title>__x64_sys_clock_nanosleep (352,062,818 samples, 0.15%)</title><rect x="1174.9" y="165" width="1.8" height="15.0" fill="rgb(248,202,48)" rx="2" ry="2" />
<text  x="1177.89" y="175.5" ></text>
</g>
<g >
<title>finish_task_switch.isra.0 (43,397,071 samples, 0.02%)</title><rect x="1175.9" y="69" width="0.2" height="15.0" fill="rgb(246,189,45)" rx="2" ry="2" />
<text  x="1178.86" y="79.5" ></text>
</g>
<g >
<title>_regmap_read (73,619,952 samples, 0.03%)</title><rect x="1178.4" y="245" width="0.4" height="15.0" fill="rgb(216,51,12)" rx="2" ry="2" />
<text  x="1181.43" y="255.5" ></text>
</g>
<g >
<title>__schedule (43,104,432 samples, 0.02%)</title><rect x="1188.1" y="341" width="0.3" height="15.0" fill="rgb(227,103,24)" rx="2" ry="2" />
<text  x="1191.14" y="351.5" ></text>
</g>
<g >
<title>[libc.so.6] (113,940,473 samples, 0.05%)</title><rect x="1177.6" y="277" width="0.5" height="15.0" fill="rgb(223,84,20)" rx="2" ry="2" />
<text  x="1180.56" y="287.5" ></text>
</g>
<g >
<title>__napi_poll (44,019,938 samples, 0.02%)</title><rect x="1180.5" y="309" width="0.3" height="15.0" fill="rgb(247,195,46)" rx="2" ry="2" />
<text  x="1183.55" y="319.5" ></text>
</g>
<g >
<title>hrtimer_interrupt (918,905,843 samples, 0.39%)</title><rect x="1183.0" y="341" width="4.6" height="15.0" fill="rgb(228,109,26)" rx="2" ry="2" />
<text  x="1185.98" y="351.5" ></text>
</g>
<g >
<title>ath10k_pci_napi_poll (44,019,938 samples, 0.02%)</title><rect x="1180.5" y="293" width="0.3" height="15.0" fill="rgb(240,164,39)" rx="2" ry="2" />
<text  x="1183.55" y="303.5" ></text>
</g>
<g >
<title>restore_fpregs_from_fpstate (40,524,858 samples, 0.02%)</title><rect x="1176.7" y="149" width="0.2" height="15.0" fill="rgb(236,144,34)" rx="2" ry="2" />
<text  x="1179.67" y="159.5" ></text>
</g>
<g >
<title>_regmap_read (135,960,953 samples, 0.06%)</title><rect x="1179.0" y="245" width="0.6" height="15.0" fill="rgb(216,51,12)" rx="2" ry="2" />
<text  x="1181.96" y="255.5" ></text>
</g>
<g >
<title>pick_next_task_fair (28,916,992 samples, 0.01%)</title><rect x="1188.1" y="325" width="0.2" height="15.0" fill="rgb(242,170,40)" rx="2" ry="2" />
<text  x="1191.14" y="335.5" ></text>
</g>
<g >
<title>_start (10,591,246,986 samples, 4.54%)</title><rect x="1124.8" y="389" width="53.6" height="15.0" fill="rgb(245,185,44)" rx="2" ry="2" />
<text  x="1127.80" y="399.5" >_start</text>
</g>
<g >
<title>entry_SYSRETQ_unsafe_stack (42,943,719 samples, 0.02%)</title><rect x="1188.7" y="389" width="0.2" height="15.0" fill="rgb(206,7,1)" rx="2" ry="2" />
<text  x="1191.65" y="399.5" ></text>
</g>
<g >
<title>sched_clock (57,996,040 samples, 0.02%)</title><rect x="1185.9" y="213" width="0.3" height="15.0" fill="rgb(212,33,7)" rx="2" ry="2" />
<text  x="1188.90" y="223.5" ></text>
</g>
<g >
<title>reweight_entity (73,243,780 samples, 0.03%)</title><rect x="1183.7" y="229" width="0.4" height="15.0" fill="rgb(253,222,53)" rx="2" ry="2" />
<text  x="1186.73" y="239.5" ></text>
</g>
<g >
<title>__schedule (278,975,236 samples, 0.12%)</title><rect x="1175.2" y="85" width="1.4" height="15.0" fill="rgb(227,103,24)" rx="2" ry="2" />
<text  x="1178.19" y="95.5" ></text>
</g>
<g >
<title>hrtimer_interrupt (44,119,354 samples, 0.02%)</title><rect x="1174.2" y="229" width="0.2" height="15.0" fill="rgb(228,109,26)" rx="2" ry="2" />
<text  x="1177.22" y="239.5" ></text>
</g>
<g >
<title>dequeue_entities (58,854,918 samples, 0.03%)</title><rect x="1175.6" y="53" width="0.3" height="15.0" fill="rgb(241,166,39)" rx="2" ry="2" />
<text  x="1178.56" y="63.5" ></text>
</g>
<g >
<title>regmap_read (73,619,952 samples, 0.03%)</title><rect x="1178.4" y="261" width="0.4" height="15.0" fill="rgb(229,114,27)" rx="2" ry="2" />
<text  x="1181.43" y="271.5" ></text>
</g>
<g >
<title>entry_SYSRETQ_unsafe_stack (59,572,002 samples, 0.03%)</title><rect x="1176.9" y="197" width="0.3" height="15.0" fill="rgb(206,7,1)" rx="2" ry="2" />
<text  x="1179.88" y="207.5" ></text>
</g>
<g >
<title>std::chrono::_V2::steady_clock::now (132,870,019 samples, 0.06%)</title><rect x="1126.0" y="309" width="0.7" height="15.0" fill="rgb(249,203,48)" rx="2" ry="2" />
<text  x="1128.98" y="319.5" ></text>
</g>
<g >
<title>std::__atomic_base&lt;int&gt;::fetch_add (29,001,523 samples, 0.01%)</title><rect x="1127.2" y="245" width="0.1" height="15.0" fill="rgb(234,137,32)" rx="2" ry="2" />
<text  x="1130.19" y="255.5" ></text>
</g>
<g >
<title>asm_sysvec_thermal (29,329,445 samples, 0.01%)</title><rect x="1188.4" y="389" width="0.2" height="15.0" fill="rgb(252,218,52)" rx="2" ry="2" />
<text  x="1191.43" y="399.5" ></text>
</g>
<g >
<title>bounded_mpmc_queue&lt;fiber_t&lt;std::function&lt;void  (87,497,069 samples, 0.04%)</title><rect x="1127.1" y="261" width="0.5" height="15.0" fill="rgb(254,227,54)" rx="2" ry="2" />
<text  x="1130.12" y="271.5" ></text>
</g>
<g >
<title>__irq_exit_rcu (58,442,684 samples, 0.03%)</title><rect x="1182.7" y="357" width="0.3" height="15.0" fill="rgb(227,101,24)" rx="2" ry="2" />
<text  x="1185.68" y="367.5" ></text>
</g>
<g >
<title>handle_fasteoi_irq (417,521,457 samples, 0.18%)</title><rect x="1178.4" y="341" width="2.1" height="15.0" fill="rgb(210,26,6)" rx="2" ry="2" />
<text  x="1181.43" y="351.5" ></text>
</g>
<g >
<title>void benchmark_runner&lt;OrderBookWorkload&gt; (10,591,246,986 samples, 4.54%)</title><rect x="1124.8" y="325" width="53.6" height="15.0" fill="rgb(206,4,1)" rx="2" ry="2" />
<text  x="1127.80" y="335.5" >void ..</text>
</g>
<g >
<title>task_tick_fair (252,405,156 samples, 0.11%)</title><rect x="1184.9" y="261" width="1.3" height="15.0" fill="rgb(217,57,13)" rx="2" ry="2" />
<text  x="1187.92" y="271.5" ></text>
</g>
<g >
<title>psi_task_switch (58,699,004 samples, 0.03%)</title><rect x="1176.2" y="69" width="0.3" height="15.0" fill="rgb(230,118,28)" rx="2" ry="2" />
<text  x="1179.23" y="79.5" ></text>
</g>
<g >
<title>common_interrupt (505,307,454 samples, 0.22%)</title><rect x="1178.4" y="373" width="2.5" height="15.0" fill="rgb(215,46,11)" rx="2" ry="2" />
<text  x="1181.36" y="383.5" ></text>
</g>
<g >
<title>ath10k_bus_pci_read32 (29,797,449 samples, 0.01%)</title><rect x="1180.5" y="277" width="0.2" height="15.0" fill="rgb(219,68,16)" rx="2" ry="2" />
<text  x="1183.55" y="287.5" ></text>
</g>
<g >
<title>void std::this_thread::sleep_for&lt;long, std::ratio&lt;1l, 1000000000l&gt; &gt; (602,442,440 samples, 0.26%)</title><rect x="1174.4" y="277" width="3.1" height="15.0" fill="rgb(212,35,8)" rx="2" ry="2" />
<text  x="1177.44" y="287.5" ></text>
</g>
<g >
<title>[libc.so.6] (10,591,246,986 samples, 4.54%)</title><rect x="1124.8" y="357" width="53.6" height="15.0" fill="rgb(223,84,20)" rx="2" ry="2" />
<text  x="1127.80" y="367.5" >[libc..</text>
</g>
<g >
<title>handle_softirqs (43,414,141 samples, 0.02%)</title><rect x="1182.7" y="341" width="0.2" height="15.0" fill="rgb(238,156,37)" rx="2" ry="2" />
<text  x="1185.68" y="351.5" ></text>
</g>
<g >
<title>__sysvec_apic_timer_interrupt (963,153,477 samples, 0.41%)</title><rect x="1183.0" y="357" width="4.8" height="15.0" fill="rgb(242,173,41)" rx="2" ry="2" />
<text  x="1185.98" y="367.5" ></text>
</g>
<g >
<title>lapic_next_deadline (88,271,496 samples, 0.04%)</title><rect x="1187.0" y="309" width="0.5" height="15.0" fill="rgb(222,82,19)" rx="2" ry="2" />
<text  x="1190.02" y="319.5" ></text>
</g>
<g >
<title>sysvec_apic_timer_interrupt (1,050,336,409 samples, 0.45%)</title><rect x="1182.7" y="373" width="5.3" height="15.0" fill="rgb(220,69,16)" rx="2" ry="2" />
<text  x="1185.68" y="383.5" ></text>
</g>
<g >
<title>_regmap_read (102,457,856 samples, 0.04%)</title><rect x="1179.6" y="261" width="0.6" height="15.0" fill="rgb(216,51,12)" rx="2" ry="2" />
<text  x="1182.65" y="271.5" ></text>
</g>
<g >
<title>hrtimer_wakeup (190,042,404 samples, 0.08%)</title><rect x="1183.4" y="309" width="1.0" height="15.0" fill="rgb(252,219,52)" rx="2" ry="2" />
<text  x="1186.43" y="319.5" ></text>
</g>
<g >
<title>sched_clock_cpu (57,996,040 samples, 0.02%)</title><rect x="1185.9" y="229" width="0.3" height="15.0" fill="rgb(229,113,27)" rx="2" ry="2" />
<text  x="1188.90" y="239.5" ></text>
</g>
<g >
<title>native_read_msr (29,329,445 samples, 0.01%)</title><rect x="1188.4" y="325" width="0.2" height="15.0" fill="rgb(211,30,7)" rx="2" ry="2" />
<text  x="1191.43" y="335.5" ></text>
</g>
<g >
<title>asm_sysvec_reschedule_ipi (57,759,572 samples, 0.02%)</title><rect x="1188.1" y="389" width="0.3" height="15.0" fill="rgb(249,205,49)" rx="2" ry="2" />
<text  x="1191.14" y="399.5" ></text>
</g>
<g >
<title>__update_load_avg_se (30,986,648 samples, 0.01%)</title><rect x="1185.7" y="229" width="0.2" height="15.0" fill="rgb(254,227,54)" rx="2" ry="2" />
<text  x="1188.75" y="239.5" ></text>
</g>
<g >
<title>enqueue_task_fair (102,119,111 samples, 0.04%)</title><rect x="1183.7" y="245" width="0.5" height="15.0" fill="rgb(216,52,12)" rx="2" ry="2" />
<text  x="1186.73" y="255.5" ></text>
</g>
<g >
<title>select_task_rq_fair (30,425,391 samples, 0.01%)</title><rect x="1183.6" y="277" width="0.1" height="15.0" fill="rgb(211,29,7)" rx="2" ry="2" />
<text  x="1186.58" y="287.5" ></text>
</g>
<g >
<title>all (233,330,730,607 samples, 100%)</title><rect x="10.0" y="421" width="1180.0" height="15.0" fill="rgb(213,39,9)" rx="2" ry="2" />
<text  x="13.00" y="431.5" ></text>
</g>
<g >
<title>ktime_get_update_offsets_now (31,073,305 samples, 0.01%)</title><rect x="1187.5" y="325" width="0.1" height="15.0" fill="rgb(243,178,42)" rx="2" ry="2" />
<text  x="1190.47" y="335.5" ></text>
</g>
<g >
<title>__perf_event_task_sched_in (28,877,824 samples, 0.01%)</title><rect x="1175.9" y="53" width="0.2" height="15.0" fill="rgb(231,121,29)" rx="2" ry="2" />
<text  x="1178.94" y="63.5" ></text>
</g>
<g >
<title>enqueue_task (116,488,812 samples, 0.05%)</title><rect x="1183.7" y="261" width="0.6" height="15.0" fill="rgb(230,116,27)" rx="2" ry="2" />
<text  x="1186.73" y="271.5" ></text>
</g>
<g >
<title>__libc_start_main (10,591,246,986 samples, 4.54%)</title><rect x="1124.8" y="373" width="53.6" height="15.0" fill="rgb(236,142,34)" rx="2" ry="2" />
<text  x="1127.80" y="383.5" >__lib..</text>
</g>
<g >
<title>sysvec_thermal (29,329,445 samples, 0.01%)</title><rect x="1188.4" y="373" width="0.2" height="15.0" fill="rgb(239,159,38)" rx="2" ry="2" />
<text  x="1191.43" y="383.5" ></text>
</g>
<g >
<title>clock_gettime (103,472,797 samples, 0.04%)</title><rect x="1126.1" y="293" width="0.6" height="15.0" fill="rgb(213,39,9)" rx="2" ry="2" />
<text  x="1129.13" y="303.5" ></text>
</g>
<g >
<title>asm_sysvec_apic_timer_interrupt (1,399,258,730 samples, 0.60%)</title><rect x="1180.9" y="389" width="7.1" height="15.0" fill="rgb(232,127,30)" rx="2" ry="2" />
<text  x="1183.92" y="399.5" ></text>
</g>
<g >
<title>hrtimer_nanosleep (323,652,186 samples, 0.14%)</title><rect x="1175.0" y="133" width="1.6" height="15.0" fill="rgb(237,147,35)" rx="2" ry="2" />
<text  x="1177.96" y="143.5" ></text>
</g>
<g >
<title>_mm_pause (9,192,462,531 samples, 3.94%)</title><rect x="1127.7" y="277" width="46.5" height="15.0" fill="rgb(226,99,23)" rx="2" ry="2" />
<text  x="1130.73" y="287.5" >_mm_..</text>
</g>
<g >
<title>place_entity (44,291,693 samples, 0.02%)</title><rect x="1183.8" y="213" width="0.2" height="15.0" fill="rgb(238,153,36)" rx="2" ry="2" />
<text  x="1186.80" y="223.5" ></text>
</g>
<g >
<title>__sysvec_thermal (29,329,445 samples, 0.01%)</title><rect x="1188.4" y="357" width="0.2" height="15.0" fill="rgb(212,33,8)" rx="2" ry="2" />
<text  x="1191.43" y="367.5" ></text>
</g>
<g >
<title>clock_nanosleep (602,442,440 samples, 0.26%)</title><rect x="1174.4" y="245" width="3.1" height="15.0" fill="rgb(231,119,28)" rx="2" ry="2" />
<text  x="1177.44" y="255.5" ></text>
</g>
<g >
<title>pick_next_task_fair (29,515,782 samples, 0.01%)</title><rect x="1176.1" y="69" width="0.1" height="15.0" fill="rgb(242,170,40)" rx="2" ry="2" />
<text  x="1179.08" y="79.5" ></text>
</g>
<g >
<title>update_curr (28,665,428 samples, 0.01%)</title><rect x="1185.3" y="245" width="0.1" height="15.0" fill="rgb(227,105,25)" rx="2" ry="2" />
<text  x="1188.28" y="255.5" ></text>
</g>
<g >
<title>intel_thermal_interrupt (29,329,445 samples, 0.01%)</title><rect x="1188.4" y="341" width="0.2" height="15.0" fill="rgb(217,56,13)" rx="2" ry="2" />
<text  x="1191.43" y="351.5" ></text>
</g>
<g >
<title>switch_fpu_return (29,030,337 samples, 0.01%)</title><rect x="1182.4" y="357" width="0.1" height="15.0" fill="rgb(206,5,1)" rx="2" ry="2" />
<text  x="1185.38" y="367.5" ></text>
</g>
<g >
<title>tmigr_requires_handle_remote (44,988,134 samples, 0.02%)</title><rect x="1186.4" y="277" width="0.3" height="15.0" fill="rgb(237,148,35)" rx="2" ry="2" />
<text  x="1189.42" y="287.5" ></text>
</g>
<g >
<title>error_entry (178,977,253 samples, 0.08%)</title><rect x="1188.9" y="389" width="0.9" height="15.0" fill="rgb(240,163,39)" rx="2" ry="2" />
<text  x="1191.87" y="399.5" ></text>
</g>
<g >
<title>mask_ioapic_irq (30,275,293 samples, 0.01%)</title><rect x="1180.4" y="325" width="0.1" height="15.0" fill="rgb(213,38,9)" rx="2" ry="2" />
<text  x="1183.39" y="335.5" ></text>
</g>
<g >
<title>[libc.so.6] (82,385,835 samples, 0.04%)</title><rect x="1177.7" y="261" width="0.4" height="15.0" fill="rgb(223,84,20)" rx="2" ry="2" />
<text  x="1180.65" y="271.5" ></text>
</g>
<g >
<title>update_load_avg (151,417,041 samples, 0.06%)</title><rect x="1185.4" y="245" width="0.8" height="15.0" fill="rgb(240,165,39)" rx="2" ry="2" />
<text  x="1188.43" y="255.5" ></text>
</g>
<g >
<title>update_process_times (431,665,735 samples, 0.19%)</title><rect x="1184.5" y="293" width="2.2" height="15.0" fill="rgb(250,209,50)" rx="2" ry="2" />
<text  x="1187.47" y="303.5" ></text>
</g>
<g >
<title>__update_load_avg_cfs_rq (46,399,951 samples, 0.02%)</title><rect x="1185.5" y="229" width="0.2" height="15.0" fill="rgb(228,107,25)" rx="2" ry="2" />
<text  x="1188.51" y="239.5" ></text>
</g>
<g >
<title>__sysvec_apic_timer_interrupt (44,119,354 samples, 0.02%)</title><rect x="1174.2" y="245" width="0.2" height="15.0" fill="rgb(242,173,41)" rx="2" ry="2" />
<text  x="1177.22" y="255.5" ></text>
</g>
<g >
<title>__common_interrupt (431,954,420 samples, 0.19%)</title><rect x="1178.4" y="357" width="2.1" height="15.0" fill="rgb(237,150,36)" rx="2" ry="2" />
<text  x="1181.36" y="367.5" ></text>
</g>
<g >
<title>std::__atomic_base&lt;bool&gt;::load (29,031,138 samples, 0.01%)</title><rect x="1127.4" y="229" width="0.2" height="15.0" fill="rgb(225,93,22)" rx="2" ry="2" />
<text  x="1130.41" y="239.5" ></text>
</g>
<g >
<title>sched_tick (355,859,541 samples, 0.15%)</title><rect x="1184.6" y="277" width="1.8" height="15.0" fill="rgb(238,155,37)" rx="2" ry="2" />
<text  x="1187.62" y="287.5" ></text>
</g>
<g >
<title>irqtime_account_irq (28,740,248 samples, 0.01%)</title><rect x="1187.8" y="357" width="0.2" height="15.0" fill="rgb(224,88,21)" rx="2" ry="2" />
<text  x="1190.85" y="367.5" ></text>
</g>
<g >
<title>do_syscall_64 (407,023,884 samples, 0.17%)</title><rect x="1174.8" y="181" width="2.1" height="15.0" fill="rgb(209,20,4)" rx="2" ry="2" />
<text  x="1177.82" y="191.5" ></text>
</g>
<g >
<title>net_rx_action (44,019,938 samples, 0.02%)</title><rect x="1180.5" y="325" width="0.3" height="15.0" fill="rgb(240,164,39)" rx="2" ry="2" />
<text  x="1183.55" y="335.5" ></text>
</g>
<g >
<title>update_wall_time (29,562,694 samples, 0.01%)</title><rect x="1186.7" y="293" width="0.1" height="15.0" fill="rgb(207,11,2)" rx="2" ry="2" />
<text  x="1189.65" y="303.5" ></text>
</g>
<g >
<title>asm_sysvec_apic_timer_interrupt (44,119,354 samples, 0.02%)</title><rect x="1174.2" y="277" width="0.2" height="15.0" fill="rgb(232,127,30)" rx="2" ry="2" />
<text  x="1177.22" y="287.5" ></text>
</g>
<g >
<title>uxsched&lt;std::function&lt;void  (10,224,081,788 samples, 4.38%)</title><rect x="1126.7" y="309" width="51.7" height="15.0" fill="rgb(236,145,34)" rx="2" ry="2" />
<text  x="1129.66" y="319.5" >uxsch..</text>
</g>
<g >
<title>syscall_return_via_sysret (29,889,325 samples, 0.01%)</title><rect x="1189.8" y="389" width="0.2" height="15.0" fill="rgb(229,113,27)" rx="2" ry="2" />
<text  x="1192.85" y="399.5" ></text>
</g>
<g >
<title>__handle_irq_event_percpu (387,246,164 samples, 0.17%)</title><rect x="1178.4" y="309" width="2.0" height="15.0" fill="rgb(236,147,35)" rx="2" ry="2" />
<text  x="1181.43" y="319.5" ></text>
</g>
<g >
<title>native_write_msr (59,144,808 samples, 0.03%)</title><rect x="1187.2" y="293" width="0.3" height="15.0" fill="rgb(237,151,36)" rx="2" ry="2" />
<text  x="1190.17" y="303.5" ></text>
</g>
<g >
<title>__vdso_clock_gettime (88,954,860 samples, 0.04%)</title><rect x="1126.2" y="277" width="0.5" height="15.0" fill="rgb(254,226,54)" rx="2" ry="2" />
<text  x="1129.21" y="287.5" ></text>
</g>
<g >
<title>do_nanosleep (323,652,186 samples, 0.14%)</title><rect x="1175.0" y="117" width="1.6" height="15.0" fill="rgb(253,220,52)" rx="2" ry="2" />
<text  x="1177.96" y="127.5" ></text>
</g>
<g >
<title>regmap_read (102,457,856 samples, 0.04%)</title><rect x="1179.6" y="277" width="0.6" height="15.0" fill="rgb(229,114,27)" rx="2" ry="2" />
<text  x="1182.65" y="287.5" ></text>
</g>
<g >
<title>sysvec_apic_timer_interrupt (44,119,354 samples, 0.02%)</title><rect x="1174.2" y="261" width="0.2" height="15.0" fill="rgb(220,69,16)" rx="2" ry="2" />
<text  x="1177.22" y="271.5" ></text>
</g>
<g >
<title>schedule (130,468,854 samples, 0.06%)</title><rect x="1181.7" y="357" width="0.7" height="15.0" fill="rgb(254,229,54)" rx="2" ry="2" />
<text  x="1184.72" y="367.5" ></text>
</g>
<g >
<title>__irqentry_text_end (267,385,269 samples, 0.11%)</title><rect x="1123.2" y="389" width="1.4" height="15.0" fill="rgb(248,199,47)" rx="2" ry="2" />
<text  x="1126.23" y="399.5" ></text>
</g>
<g >
<title>i2c_dw_isr (341,988,853 samples, 0.15%)</title><rect x="1178.4" y="293" width="1.8" height="15.0" fill="rgb(223,82,19)" rx="2" ry="2" />
<text  x="1181.43" y="303.5" ></text>
</g>
<g >
<title>psi_group_change (43,980,903 samples, 0.02%)</title><rect x="1176.2" y="53" width="0.3" height="15.0" fill="rgb(226,101,24)" rx="2" ry="2" />
<text  x="1179.23" y="63.5" ></text>
</g>
<g >
<title>ah_loader&lt;std::function&lt;void  (117,431,884 samples, 0.05%)</title><rect x="1127.0" y="277" width="0.6" height="15.0" fill="rgb(232,124,29)" rx="2" ry="2" />
<text  x="1129.97" y="287.5" ></text>
</g>
<g >
<title>restore_fpregs_from_fpstate (29,030,337 samples, 0.01%)</title><rect x="1182.4" y="341" width="0.1" height="15.0" fill="rgb(236,144,34)" rx="2" ry="2" />
<text  x="1185.38" y="351.5" ></text>
</g>
<g >
<title>__schedule (130,468,854 samples, 0.06%)</title><rect x="1181.7" y="341" width="0.7" height="15.0" fill="rgb(227,103,24)" rx="2" ry="2" />
<text  x="1184.72" y="351.5" ></text>
</g>
<g >
<title>dw_reg_read (135,960,953 samples, 0.06%)</title><rect x="1179.0" y="229" width="0.6" height="15.0" fill="rgb(205,3,0)" rx="2" ry="2" />
<text  x="1181.96" y="239.5" ></text>
</g>
<g >
<title>pick_task_fair (28,916,992 samples, 0.01%)</title><rect x="1188.1" y="309" width="0.2" height="15.0" fill="rgb(243,176,42)" rx="2" ry="2" />
<text  x="1191.14" y="319.5" ></text>
</g>
<g >
<title>update_rq_clock (45,209,355 samples, 0.02%)</title><rect x="1186.2" y="261" width="0.2" height="15.0" fill="rgb(231,119,28)" rx="2" ry="2" />
<text  x="1189.20" y="271.5" ></text>
</g>
<g >
<title>__calc_delta.constprop.0 (44,291,693 samples, 0.02%)</title><rect x="1183.8" y="197" width="0.2" height="15.0" fill="rgb(232,127,30)" rx="2" ry="2" />
<text  x="1186.80" y="207.5" ></text>
</g>
<g >
<title>common_nsleep (323,652,186 samples, 0.14%)</title><rect x="1175.0" y="149" width="1.6" height="15.0" fill="rgb(227,105,25)" rx="2" ry="2" />
<text  x="1177.96" y="159.5" ></text>
</g>
<g >
<title>regmap_write (29,950,092 samples, 0.01%)</title><rect x="1178.8" y="261" width="0.2" height="15.0" fill="rgb(206,5,1)" rx="2" ry="2" />
<text  x="1181.81" y="271.5" ></text>
</g>
<g >
<title>hrtimer_start_range_ns (29,762,635 samples, 0.01%)</title><rect x="1175.0" y="101" width="0.1" height="15.0" fill="rgb(244,179,42)" rx="2" ry="2" />
<text  x="1177.96" y="111.5" ></text>
</g>
<g >
<title>regmap_read (135,960,953 samples, 0.06%)</title><rect x="1179.0" y="261" width="0.6" height="15.0" fill="rgb(229,114,27)" rx="2" ry="2" />
<text  x="1181.96" y="271.5" ></text>
</g>
<g >
<title>irqentry_exit (43,104,432 samples, 0.02%)</title><rect x="1188.1" y="373" width="0.3" height="15.0" fill="rgb(219,66,15)" rx="2" ry="2" />
<text  x="1191.14" y="383.5" ></text>
</g>
<g >
<title>syscall_return_via_sysret (59,312,803 samples, 0.03%)</title><rect x="1177.2" y="197" width="0.3" height="15.0" fill="rgb(229,113,27)" rx="2" ry="2" />
<text  x="1180.19" y="207.5" ></text>
</g>
<g >
<title>_regmap_write (29,950,092 samples, 0.01%)</title><rect x="1178.8" y="245" width="0.2" height="15.0" fill="rgb(242,172,41)" rx="2" ry="2" />
<text  x="1181.81" y="255.5" ></text>
</g>
<g >
<title>asm_common_interrupt (505,307,454 samples, 0.22%)</title><rect x="1178.4" y="389" width="2.5" height="15.0" fill="rgb(227,105,25)" rx="2" ry="2" />
<text  x="1181.36" y="399.5" ></text>
</g>
<g >
<title>__hrtimer_run_queues (29,445,910 samples, 0.01%)</title><rect x="1174.2" y="213" width="0.2" height="15.0" fill="rgb(237,150,35)" rx="2" ry="2" />
<text  x="1177.22" y="223.5" ></text>
</g>
<g >
<title>entry_SYSCALL_64_after_hwframe (407,023,884 samples, 0.17%)</title><rect x="1174.8" y="197" width="2.1" height="15.0" fill="rgb(218,63,15)" rx="2" ry="2" />
<text  x="1177.82" y="207.5" ></text>
</g>
<g >
<title>try_to_wake_up (190,042,404 samples, 0.08%)</title><rect x="1183.4" y="293" width="1.0" height="15.0" fill="rgb(220,70,16)" rx="2" ry="2" />
<text  x="1186.43" y="303.5" ></text>
</g>
<g >
<title>[libc.so.6] (587,617,234 samples, 0.25%)</title><rect x="1174.5" y="213" width="3.0" height="15.0" fill="rgb(223,84,20)" rx="2" ry="2" />
<text  x="1177.52" y="223.5" ></text>
</g>
<g >
<title>reweight_entity (28,651,186 samples, 0.01%)</title><rect x="1184.9" y="245" width="0.2" height="15.0" fill="rgb(253,222,53)" rx="2" ry="2" />
<text  x="1187.92" y="255.5" ></text>
</g>
<g >
<title>update_irq_load_avg (30,786,163 samples, 0.01%)</title><rect x="1186.3" y="245" width="0.1" height="15.0" fill="rgb(232,126,30)" rx="2" ry="2" />
<text  x="1189.27" y="255.5" ></text>
</g>
<g >
<title>__irq_exit_rcu (58,507,259 samples, 0.03%)</title><rect x="1180.5" y="357" width="0.3" height="15.0" fill="rgb(227,101,24)" rx="2" ry="2" />
<text  x="1183.55" y="367.5" ></text>
</g>
<g >
<title>sched_balance_update_blocked_averages (29,451,801 samples, 0.01%)</title><rect x="1182.8" y="309" width="0.1" height="15.0" fill="rgb(223,86,20)" rx="2" ry="2" />
<text  x="1185.75" y="319.5" ></text>
</g>
<g >
<title>operator new (157,796,389 samples, 0.07%)</title><rect x="1177.5" y="293" width="0.8" height="15.0" fill="rgb(216,51,12)" rx="2" ry="2" />
<text  x="1180.49" y="303.5" ></text>
</g>
<g >
<title>update_process_times (29,445,910 samples, 0.01%)</title><rect x="1174.2" y="181" width="0.2" height="15.0" fill="rgb(250,209,50)" rx="2" ry="2" />
<text  x="1177.22" y="191.5" ></text>
</g>
<g >
<title>tick_nohz_handler (29,445,910 samples, 0.01%)</title><rect x="1174.2" y="197" width="0.2" height="15.0" fill="rgb(248,200,48)" rx="2" ry="2" />
<text  x="1177.22" y="207.5" ></text>
</g>
<g >
<title>__switch_to_asm (29,469,157 samples, 0.01%)</title><rect x="1174.5" y="197" width="0.2" height="15.0" fill="rgb(218,60,14)" rx="2" ry="2" />
<text  x="1177.52" y="207.5" ></text>
</g>
<g >
<title>psi_account_irqtime (28,974,739 samples, 0.01%)</title><rect x="1184.8" y="261" width="0.1" height="15.0" fill="rgb(224,88,21)" rx="2" ry="2" />
<text  x="1187.77" y="271.5" ></text>
</g>
<g >
<title>exp_backoff::wait (9,867,750,863 samples, 4.23%)</title><rect x="1127.6" y="293" width="49.9" height="15.0" fill="rgb(251,212,50)" rx="2" ry="2" />
<text  x="1130.59" y="303.5" >exp_b..</text>
</g>
<g >
<title>__nanosleep (602,442,440 samples, 0.26%)</title><rect x="1174.4" y="261" width="3.1" height="15.0" fill="rgb(252,217,52)" rx="2" ry="2" />
<text  x="1177.44" y="271.5" ></text>
</g>
<g >
<title>sched_balance_softirq (29,451,801 samples, 0.01%)</title><rect x="1182.8" y="325" width="0.1" height="15.0" fill="rgb(234,133,32)" rx="2" ry="2" />
<text  x="1185.75" y="335.5" ></text>
</g>
<g >
<title>set_next_entity (43,644,416 samples, 0.02%)</title><rect x="1182.2" y="309" width="0.2" height="15.0" fill="rgb(232,125,29)" rx="2" ry="2" />
<text  x="1185.16" y="319.5" ></text>
</g>
<g >
<title>main (10,591,246,986 samples, 4.54%)</title><rect x="1124.8" y="341" width="53.6" height="15.0" fill="rgb(243,179,42)" rx="2" ry="2" />
<text  x="1127.80" y="351.5" >main</text>
</g>
<g >
<title>clockevents_program_event (102,913,133 samples, 0.04%)</title><rect x="1186.9" y="325" width="0.6" height="15.0" fill="rgb(244,182,43)" rx="2" ry="2" />
<text  x="1189.95" y="335.5" ></text>
</g>
<g >
<title>native_sched_clock (43,727,455 samples, 0.02%)</title><rect x="1186.0" y="197" width="0.2" height="15.0" fill="rgb(218,64,15)" rx="2" ry="2" />
<text  x="1188.97" y="207.5" ></text>
</g>
<g >
<title>dw_reg_read (73,619,952 samples, 0.03%)</title><rect x="1178.4" y="229" width="0.4" height="15.0" fill="rgb(205,3,0)" rx="2" ry="2" />
<text  x="1181.43" y="239.5" ></text>
</g>
</g>
</svg>
